<svg width="20" height="30" viewBox="0 0 20 30" fill="none" xmlns="http://www.w3.org/2000/svg">
<g clip-path="url(#clip0_1_861)">
<path d="M5.00095 29.999C7.7604 29.999 9.99995 27.759 9.99995 24.999V19.999H5.00095C2.2415 19.999 0.00195312 22.239 0.00195312 24.999C0.00195312 27.759 2.2415 29.999 5.00095 29.999Z" fill="#0ACF83"/>
<path d="M0.00195312 15C0.00195312 12.24 2.2415 10 5.00095 10H9.99995V20H5.00095C2.2415 20 0.00195312 17.76 0.00195312 15Z" fill="#A259FF"/>
<path d="M0.00195312 5C0.00195312 2.24 2.2415 0 5.00095 0H9.99995V10H5.00095C2.2415 10 0.00195312 7.76 0.00195312 5Z" fill="#F24E1E"/>
<path d="M10 0H14.999C17.7584 0 19.998 2.24 19.998 5C19.998 7.76 17.7584 10 14.999 10H10V0Z" fill="#FF7262"/>
<path d="M19.998 15C19.998 17.76 17.7584 20 14.999 20C12.2396 20 10 17.76 10 15C10 12.24 12.2396 10 14.999 10C17.7584 10 19.998 12.24 19.998 15Z" fill="#1ABCFE"/>
</g>
<defs>
<clipPath id="clip0_1_861">
<rect width="20" height="30" fill="white"/>
</clipPath>
</defs>
</svg>
