<svg width="60" height="60" viewBox="0 0 60 60" fill="none" xmlns="http://www.w3.org/2000/svg">
<rect opacity="0.15" width="60" height="60" rx="30" fill="#FD346E"/>
<g clip-path="url(#clip0_2004_283)">
<path d="M38.5358 28.812H36.6797C36.8689 29.33 36.9722 29.889 36.9722 30.4716V37.4864C36.9722 37.7293 36.93 37.9625 36.853 38.1793H39.9215C41.0678 38.1793 42.0002 37.2468 42.0002 36.1006V32.2765C42.0003 30.3662 40.4461 28.812 38.5358 28.812Z" fill="#FD346E"/>
<path d="M23.0281 30.4715C23.0281 29.8889 23.1314 29.3299 23.3206 28.812H21.4645C19.5542 28.812 18 30.3661 18 32.2765V36.1006C18 37.2468 18.9325 38.1793 20.0787 38.1793H23.1473C23.0703 37.9624 23.0281 37.7293 23.0281 37.4864V30.4715V30.4715Z" fill="#FD346E"/>
<path d="M32.1216 27.007H27.8784C25.968 27.007 24.4138 28.5611 24.4138 30.4715V37.4864C24.4138 37.869 24.724 38.1793 25.1067 38.1793H34.8932C35.2759 38.1793 35.5861 37.869 35.5861 37.4864V30.4715C35.5861 28.5611 34.0319 27.007 32.1216 27.007Z" fill="#FD346E"/>
<path d="M29.9995 17.8206C27.7021 17.8206 25.833 19.6897 25.833 21.9872C25.833 23.5456 26.6931 24.9066 27.9633 25.6211C28.5658 25.9601 29.2604 26.1537 29.9995 26.1537C30.7387 26.1537 31.4333 25.9601 32.0358 25.6211C33.306 24.9066 34.1661 23.5455 34.1661 21.9872C34.1661 19.6898 32.297 17.8206 29.9995 17.8206Z" fill="#FD346E"/>
<path d="M22.6834 21.7042C20.9652 21.7042 19.5674 23.102 19.5674 24.8202C19.5674 26.5384 20.9652 27.9362 22.6834 27.9362C23.1192 27.9362 23.5343 27.8459 23.9113 27.6836C24.5631 27.403 25.1006 26.9062 25.4332 26.284C25.6666 25.8472 25.7994 25.349 25.7994 24.8202C25.7994 23.102 24.4016 21.7042 22.6834 21.7042Z" fill="#FD346E"/>
<path d="M37.3165 21.7042C35.5983 21.7042 34.2004 23.102 34.2004 24.8202C34.2004 25.349 34.3332 25.8473 34.5667 26.284C34.8993 26.9063 35.4367 27.403 36.0886 27.6836C36.4656 27.8459 36.8806 27.9362 37.3165 27.9362C39.0347 27.9362 40.4325 26.5384 40.4325 24.8202C40.4325 23.102 39.0347 21.7042 37.3165 21.7042Z" fill="#FD346E"/>
</g>
<defs>
<clipPath id="clip0_2004_283">
<rect width="24" height="24" fill="white" transform="translate(18 16)"/>
</clipPath>
</defs>
</svg>
