<svg width="60" height="60" viewBox="0 0 60 60" fill="none" xmlns="http://www.w3.org/2000/svg">
<rect opacity="0.15" width="60" height="60" rx="30" fill="#1EE2CF"/>
<path d="M34.7129 24.75C33.7897 20.4625 31.821 17.75 30.0001 17.75C28.1792 17.75 26.2105 20.4625 25.2874 24.75H34.7129Z" fill="#1EE2CF"/>
<path d="M24.75 30C24.7498 31.1706 24.8278 32.3398 24.9836 33.5H35.0164C35.1722 32.3398 35.2502 31.1706 35.25 30C35.2502 28.8294 35.1722 27.6602 35.0164 26.5H24.9836C24.8278 27.6602 24.7498 28.8294 24.75 30V30Z" fill="#1EE2CF"/>
<path d="M25.2874 35.25C26.2105 39.5375 28.1792 42.25 30.0001 42.25C31.821 42.25 33.7897 39.5375 34.7129 35.25H25.2874Z" fill="#1EE2CF"/>
<path d="M36.5044 24.75H42.0169C41.1886 22.8651 39.9301 21.2004 38.3424 19.8897C36.7546 18.5789 34.8817 17.6585 32.874 17.2023C34.5339 18.6626 35.8359 21.3629 36.5044 24.75V24.75Z" fill="#1EE2CF"/>
<path d="M42.6463 26.5H36.7838C36.9282 27.6611 37.0004 28.83 37 30C37.0001 31.17 36.9276 32.3389 36.783 33.5H42.6455C43.2836 31.2103 43.2836 28.7897 42.6455 26.5H42.6463Z" fill="#1EE2CF"/>
<path d="M32.874 42.7977C34.8821 42.3417 36.7553 41.4214 38.3434 40.1107C39.9314 38.7999 41.1902 37.1352 42.0186 35.25H36.5061C35.8359 38.6371 34.5339 41.3374 32.874 42.7977V42.7977Z" fill="#1EE2CF"/>
<path d="M23.4949 35.25H17.9824C18.8109 37.1352 20.0696 38.7999 21.6577 40.1107C23.2458 41.4214 25.119 42.3417 27.127 42.7977C25.4654 41.3374 24.1634 38.6371 23.4949 35.25V35.25Z" fill="#1EE2CF"/>
<path d="M27.1261 17.2023C25.118 17.6583 23.2448 18.5786 21.6567 19.8893C20.0686 21.2001 18.8099 22.8649 17.9814 24.75H23.4939C24.1642 21.3629 25.4662 18.6626 27.1261 17.2023V17.2023Z" fill="#1EE2CF"/>
<path d="M23.0001 30C22.9999 28.83 23.0724 27.6611 23.2171 26.5H17.3546C16.7164 28.7897 16.7164 31.2103 17.3546 33.5H23.2171C23.0724 32.3389 22.9999 31.17 23.0001 30V30Z" fill="#1EE2CF"/>
</svg>
