<svg width="60" height="60" viewBox="0 0 60 60" fill="none" xmlns="http://www.w3.org/2000/svg">
<rect opacity="0.15" width="60" height="60" rx="30" fill="#726FFC"/>
<g clip-path="url(#clip0_2004_286)">
<path d="M42.9294 26.3561C42.7516 25.8094 42.2667 25.4223 41.6953 25.3706L33.9012 24.663L30.8209 17.4514C30.5935 16.9216 30.076 16.5797 29.5 16.5797C28.9241 16.5797 28.4064 16.9216 28.1804 17.4514L25.1001 24.663L17.3048 25.3706C16.7334 25.4233 16.2495 25.8104 16.0707 26.3561C15.8929 26.9028 16.0571 27.5024 16.4893 27.8815L22.381 33.0477L20.6438 40.6988C20.5167 41.2614 20.7351 41.8431 21.2019 42.1806C21.4528 42.3629 21.7475 42.4539 22.0434 42.4539C22.2976 42.4539 22.552 42.3863 22.7792 42.2504L29.5 38.2318L36.2197 42.2504C36.7126 42.545 37.3325 42.518 37.7982 42.1806C38.265 41.8431 38.4834 41.2614 38.3563 40.6988L36.6191 33.0477L42.5108 27.8815C42.9428 27.5024 43.1072 26.904 42.9294 26.3561V26.3561Z" fill="#726FFC"/>
</g>
<defs>
<clipPath id="clip0_2004_286">
<rect width="27" height="27" fill="white" transform="translate(16 16)"/>
</clipPath>
</defs>
</svg>
