<svg width="216" height="69" viewBox="0 0 216 69" fill="none" xmlns="http://www.w3.org/2000/svg">
<path d="M99.7066 49.54C96.5266 49.54 93.7966 48.865 91.5166 47.515C89.2366 46.135 87.4816 44.23 86.2516 41.8C85.0216 39.34 84.4066 36.505 84.4066 33.295C84.4066 30.085 85.0216 27.25 86.2516 24.79C87.4816 22.33 89.2366 20.41 91.5166 19.03C93.7966 17.65 96.5266 16.96 99.7066 16.96C103.487 16.96 106.577 17.905 108.977 19.795C111.407 21.655 112.922 24.28 113.522 27.67H107.177C106.787 25.96 105.947 24.625 104.657 23.665C103.397 22.675 101.717 22.18 99.6166 22.18C96.7066 22.18 94.4266 23.17 92.7766 25.15C91.1266 27.13 90.3016 29.845 90.3016 33.295C90.3016 36.745 91.1266 39.46 92.7766 41.44C94.4266 43.39 96.7066 44.365 99.6166 44.365C101.717 44.365 103.397 43.915 104.657 43.015C105.947 42.085 106.787 40.81 107.177 39.19H113.522C112.922 42.43 111.407 44.965 108.977 46.795C106.577 48.625 103.487 49.54 99.7066 49.54ZM127.845 49.54C125.685 49.54 123.735 49.045 121.995 48.055C120.285 47.065 118.92 45.7 117.9 43.96C116.91 42.19 116.415 40.15 116.415 37.84C116.415 35.53 116.925 33.505 117.945 31.765C118.965 29.995 120.33 28.615 122.04 27.625C123.78 26.635 125.73 26.14 127.89 26.14C130.02 26.14 131.94 26.635 133.65 27.625C135.39 28.615 136.755 29.995 137.745 31.765C138.765 33.505 139.275 35.53 139.275 37.84C139.275 40.15 138.765 42.19 137.745 43.96C136.755 45.7 135.39 47.065 133.65 48.055C131.91 49.045 129.975 49.54 127.845 49.54ZM127.845 44.545C129.345 44.545 130.65 43.99 131.76 42.88C132.87 41.74 133.425 40.06 133.425 37.84C133.425 35.62 132.87 33.955 131.76 32.845C130.65 31.705 129.36 31.135 127.89 31.135C126.36 31.135 125.04 31.705 123.93 32.845C122.85 33.955 122.31 35.62 122.31 37.84C122.31 40.06 122.85 41.74 123.93 42.88C125.04 43.99 126.345 44.545 127.845 44.545ZM143.075 49V16.6H148.835V49H143.075ZM153.371 49V16.6H159.131V49H153.371ZM171.361 49.54C169.441 49.54 167.866 49.24 166.636 48.64C165.406 48.01 164.491 47.185 163.891 46.165C163.291 45.145 162.991 44.02 162.991 42.79C162.991 40.72 163.801 39.04 165.421 37.75C167.041 36.46 169.471 35.815 172.711 35.815H178.381V35.275C178.381 33.745 177.946 32.62 177.076 31.9C176.206 31.18 175.126 30.82 173.836 30.82C172.666 30.82 171.646 31.105 170.776 31.675C169.906 32.215 169.366 33.025 169.156 34.105H163.531C163.681 32.485 164.221 31.075 165.151 29.875C166.111 28.675 167.341 27.76 168.841 27.13C170.341 26.47 172.021 26.14 173.881 26.14C177.061 26.14 179.566 26.935 181.396 28.525C183.226 30.115 184.141 32.365 184.141 35.275V49H179.236L178.696 45.4C178.036 46.6 177.106 47.59 175.906 48.37C174.736 49.15 173.221 49.54 171.361 49.54ZM172.666 45.04C174.316 45.04 175.591 44.5 176.491 43.42C177.421 42.34 178.006 41.005 178.246 39.415H173.341C171.811 39.415 170.716 39.7 170.056 40.27C169.396 40.81 169.066 41.485 169.066 42.295C169.066 43.165 169.396 43.84 170.056 44.32C170.716 44.8 171.586 45.04 172.666 45.04ZM186.173 49L194.273 37.84L186.173 26.68H192.338L198.008 34.6L203.633 26.68H209.843L201.698 37.84L209.843 49H203.633L198.008 41.08L192.338 49H186.173Z" fill="white"/>
<rect x="0.000244141" width="69.3209" height="69" rx="10" fill="#2E2AEB"/>
<ellipse cx="28.6328" cy="30.5" rx="5.52558" ry="5.5" fill="white"/>
<path d="M16.0747 16H36.191C38.9524 16 41.191 18.2386 41.191 21V36C41.191 38.7614 38.9524 41 36.191 41H21.0747C18.3133 41 16.0747 38.7614 16.0747 36V16Z" fill="#5956E9"/>
<path opacity="0.85" d="M29.135 27H49.2513C52.0127 27 54.2513 29.2386 54.2513 32V47C54.2513 49.7614 52.0127 52 49.2513 52H34.135C31.3736 52 29.135 49.7614 29.135 47V27Z" fill="#FFDC60"/>
<mask id="mask0_2004_248" style="mask-type:alpha" maskUnits="userSpaceOnUse" x="16" y="16" width="26" height="25">
<path d="M16.0747 16H36.191C38.9524 16 41.191 18.2386 41.191 21V36C41.191 38.7614 38.9524 41 36.191 41H21.0747C18.3133 41 16.0747 38.7614 16.0747 36V16Z" fill="#E0C175"/>
</mask>
<g mask="url(#mask0_2004_248)">
<path opacity="0.85" d="M29.135 27H49.2513C52.0127 27 54.2513 29.2386 54.2513 32V47C54.2513 49.7614 52.0127 52 49.2513 52H34.135C31.3736 52 29.135 49.7614 29.135 47V27Z" fill="#82CEFD"/>
</g>
</svg>
