<svg width="215" height="69" viewBox="0 0 215 69" fill="none" xmlns="http://www.w3.org/2000/svg">
<path d="M99.3252 49.54C96.1452 49.54 93.4152 48.865 91.1352 47.515C88.8552 46.135 87.1002 44.23 85.8702 41.8C84.6402 39.34 84.0252 36.505 84.0252 33.295C84.0252 30.085 84.6402 27.25 85.8702 24.79C87.1002 22.33 88.8552 20.41 91.1352 19.03C93.4152 17.65 96.1452 16.96 99.3252 16.96C103.105 16.96 106.195 17.905 108.595 19.795C111.025 21.655 112.54 24.28 113.14 27.67H106.795C106.405 25.96 105.565 24.625 104.275 23.665C103.015 22.675 101.335 22.18 99.2352 22.18C96.3252 22.18 94.0452 23.17 92.3952 25.15C90.7452 27.13 89.9202 29.845 89.9202 33.295C89.9202 36.745 90.7452 39.46 92.3952 41.44C94.0452 43.39 96.3252 44.365 99.2352 44.365C101.335 44.365 103.015 43.915 104.275 43.015C105.565 42.085 106.405 40.81 106.795 39.19H113.14C112.54 42.43 111.025 44.965 108.595 46.795C106.195 48.625 103.105 49.54 99.3252 49.54ZM127.464 49.54C125.304 49.54 123.354 49.045 121.614 48.055C119.904 47.065 118.539 45.7 117.519 43.96C116.529 42.19 116.034 40.15 116.034 37.84C116.034 35.53 116.544 33.505 117.564 31.765C118.584 29.995 119.949 28.615 121.659 27.625C123.399 26.635 125.349 26.14 127.509 26.14C129.639 26.14 131.559 26.635 133.269 27.625C135.009 28.615 136.374 29.995 137.364 31.765C138.384 33.505 138.894 35.53 138.894 37.84C138.894 40.15 138.384 42.19 137.364 43.96C136.374 45.7 135.009 47.065 133.269 48.055C131.529 49.045 129.594 49.54 127.464 49.54ZM127.464 44.545C128.964 44.545 130.269 43.99 131.379 42.88C132.489 41.74 133.044 40.06 133.044 37.84C133.044 35.62 132.489 33.955 131.379 32.845C130.269 31.705 128.979 31.135 127.509 31.135C125.979 31.135 124.659 31.705 123.549 32.845C122.469 33.955 121.929 35.62 121.929 37.84C121.929 40.06 122.469 41.74 123.549 42.88C124.659 43.99 125.964 44.545 127.464 44.545ZM142.694 49V16.6H148.454V49H142.694ZM152.989 49V16.6H158.749V49H152.989ZM170.98 49.54C169.06 49.54 167.485 49.24 166.255 48.64C165.025 48.01 164.11 47.185 163.51 46.165C162.91 45.145 162.61 44.02 162.61 42.79C162.61 40.72 163.42 39.04 165.04 37.75C166.66 36.46 169.09 35.815 172.33 35.815H178V35.275C178 33.745 177.565 32.62 176.695 31.9C175.825 31.18 174.745 30.82 173.455 30.82C172.285 30.82 171.265 31.105 170.395 31.675C169.525 32.215 168.985 33.025 168.775 34.105H163.15C163.3 32.485 163.84 31.075 164.77 29.875C165.73 28.675 166.96 27.76 168.46 27.13C169.96 26.47 171.64 26.14 173.5 26.14C176.68 26.14 179.185 26.935 181.015 28.525C182.845 30.115 183.76 32.365 183.76 35.275V49H178.855L178.315 45.4C177.655 46.6 176.725 47.59 175.525 48.37C174.355 49.15 172.84 49.54 170.98 49.54ZM172.285 45.04C173.935 45.04 175.21 44.5 176.11 43.42C177.04 42.34 177.625 41.005 177.865 39.415H172.96C171.43 39.415 170.335 39.7 169.675 40.27C169.015 40.81 168.685 41.485 168.685 42.295C168.685 43.165 169.015 43.84 169.675 44.32C170.335 44.8 171.205 45.04 172.285 45.04ZM185.792 49L193.892 37.84L185.792 26.68H191.957L197.627 34.6L203.252 26.68H209.462L201.317 37.84L209.462 49H203.252L197.627 41.08L191.957 49H185.792Z" fill="white"/>
<rect x="0.000244141" width="69" height="69" rx="10" fill="#2E2AEB"/>
<circle cx="28.5002" cy="30.5" r="5.5" fill="white"/>
<path d="M16.0002 16H36.0002C38.7617 16 41.0002 18.2386 41.0002 21V36C41.0002 38.7614 38.7617 41 36.0002 41H21.0002C18.2388 41 16.0002 38.7614 16.0002 36V16Z" fill="#5956E9"/>
<path opacity="0.85" d="M29.0002 27H49.0002C51.7617 27 54.0002 29.2386 54.0002 32V47C54.0002 49.7614 51.7617 52 49.0002 52H34.0002C31.2388 52 29.0002 49.7614 29.0002 47V27Z" fill="#FFDC60"/>
<mask id="mask0_2004_248" style="mask-type:alpha" maskUnits="userSpaceOnUse" x="16" y="16" width="26" height="25">
<path d="M16.0002 16H36.0002C38.7617 16 41.0002 18.2386 41.0002 21V36C41.0002 38.7614 38.7617 41 36.0002 41H21.0002C18.2388 41 16.0002 38.7614 16.0002 36V16Z" fill="#E0C175"/>
</mask>
<g mask="url(#mask0_2004_248)">
<path opacity="0.85" d="M29.0002 27H49.0002C51.7617 27 54.0002 29.2386 54.0002 32V47C54.0002 49.7614 51.7617 52 49.0002 52H34.0002C31.2388 52 29.0002 49.7614 29.0002 47V27Z" fill="#82CEFD"/>
</g>
</svg>
