<svg width="81" height="19" viewBox="0 0 81 19" fill="none" xmlns="http://www.w3.org/2000/svg">
<path d="M0.584 18V1.2H3.752V7.872H4.184L9.632 1.2H13.688L6.68 9.48L13.928 18H9.752L4.184 11.184H3.752V18H0.584ZM15.7034 18V6.096H18.6794V7.44H19.1114C19.2874 6.96 19.5754 6.608 19.9754 6.384C20.3914 6.16 20.8714 6.048 21.4154 6.048H22.8554V8.736H21.3674C20.5994 8.736 19.9674 8.944 19.4714 9.36C18.9754 9.76 18.7274 10.384 18.7274 11.232V18H15.7034ZM30.2212 18.336C29.0372 18.336 27.9892 18.088 27.0772 17.592C26.1812 17.08 25.4772 16.368 24.9652 15.456C24.4692 14.528 24.2212 13.44 24.2212 12.192V11.904C24.2212 10.656 24.4692 9.576 24.9652 8.664C25.4612 7.736 26.1572 7.024 27.0532 6.528C27.9492 6.016 28.9892 5.76 30.1732 5.76C31.3412 5.76 32.3572 6.024 33.2212 6.552C34.0852 7.064 34.7572 7.784 35.2372 8.712C35.7172 9.624 35.9572 10.688 35.9572 11.904V12.936H27.2932C27.3252 13.752 27.6292 14.416 28.2052 14.928C28.7812 15.44 29.4852 15.696 30.3172 15.696C31.1652 15.696 31.7892 15.512 32.1892 15.144C32.5892 14.776 32.8932 14.368 33.1012 13.92L35.5732 15.216C35.3492 15.632 35.0212 16.088 34.5892 16.584C34.1732 17.064 33.6132 17.48 32.9092 17.832C32.2052 18.168 31.3092 18.336 30.2212 18.336ZM27.3172 10.68H32.8852C32.8212 9.992 32.5412 9.44 32.0452 9.024C31.5652 8.608 30.9332 8.4 30.1492 8.4C29.3332 8.4 28.6852 8.608 28.2052 9.024C27.7252 9.44 27.4292 9.992 27.3172 10.68ZM42.3448 18.336C41.4968 18.336 40.7368 18.192 40.0648 17.904C39.3928 17.6 38.8568 17.168 38.4568 16.608C38.0728 16.032 37.8808 15.336 37.8808 14.52C37.8808 13.704 38.0728 13.024 38.4568 12.48C38.8568 11.92 39.4008 11.504 40.0888 11.232C40.7928 10.944 41.5928 10.8 42.4888 10.8H45.7528V10.128C45.7528 9.568 45.5768 9.112 45.2248 8.76C44.8728 8.392 44.3128 8.208 43.5448 8.208C42.7928 8.208 42.2328 8.384 41.8648 8.736C41.4968 9.072 41.2568 9.512 41.1448 10.056L38.3608 9.12C38.5528 8.512 38.8568 7.96 39.2728 7.464C39.7048 6.952 40.2728 6.544 40.9768 6.24C41.6968 5.92 42.5688 5.76 43.5928 5.76C45.1608 5.76 46.4008 6.152 47.3128 6.936C48.2248 7.72 48.6808 8.856 48.6808 10.344V14.784C48.6808 15.264 48.9048 15.504 49.3528 15.504H50.3128V18H48.2968C47.7048 18 47.2168 17.856 46.8328 17.568C46.4488 17.28 46.2568 16.896 46.2568 16.416V16.392H45.8008C45.7368 16.584 45.5928 16.84 45.3688 17.16C45.1448 17.464 44.7928 17.736 44.3128 17.976C43.8328 18.216 43.1768 18.336 42.3448 18.336ZM42.8728 15.888C43.7208 15.888 44.4088 15.656 44.9368 15.192C45.4808 14.712 45.7528 14.08 45.7528 13.296V13.056H42.7048C42.1448 13.056 41.7048 13.176 41.3848 13.416C41.0648 13.656 40.9048 13.992 40.9048 14.424C40.9048 14.856 41.0728 15.208 41.4088 15.48C41.7448 15.752 42.2328 15.888 42.8728 15.888ZM56.2166 18C55.4326 18 54.7926 17.76 54.2966 17.28C53.8166 16.784 53.5766 16.128 53.5766 15.312V8.592H50.6006V6.096H53.5766V2.4H56.6006V6.096H59.8646V8.592H56.6006V14.784C56.6006 15.264 56.8246 15.504 57.2726 15.504H59.5766V18H56.2166ZM62.6019 18V6.096H65.6259V18H62.6019ZM64.1139 4.704C63.5699 4.704 63.1059 4.528 62.7219 4.176C62.3539 3.824 62.1699 3.36 62.1699 2.784C62.1699 2.208 62.3539 1.744 62.7219 1.392C63.1059 1.04 63.5699 0.863999 64.1139 0.863999C64.6739 0.863999 65.1379 1.04 65.5059 1.392C65.8739 1.744 66.0579 2.208 66.0579 2.784C66.0579 3.36 65.8739 3.824 65.5059 4.176C65.1379 4.528 64.6739 4.704 64.1139 4.704ZM71.4729 18L67.6809 6.096H70.8969L73.6569 15.792H74.0889L76.8489 6.096H80.0649L76.2729 18H71.4729Z" fill="url(#paint0_linear_2_78)"/>
<defs>
<linearGradient id="paint0_linear_2_78" x1="-4.41667" y1="4.80035e-06" x2="83.5406" y2="17.7648" gradientUnits="userSpaceOnUse">
<stop stop-color="#496F74"/>
<stop offset="0.370774" stop-color="#6E9195"/>
<stop offset="0.832516" stop-color="#2D4F61"/>
</linearGradient>
</defs>
</svg>
