<svg width="14" height="14" viewBox="0 0 14 14" fill="none" xmlns="http://www.w3.org/2000/svg">
<path d="M13.2323 8.5708C13.3202 8.16064 13.3788 7.72119 13.3788 7.28174C13.3788 3.97119 10.6835 1.27588 7.37296 1.27588C6.9335 1.27588 6.49405 1.33447 6.08389 1.42236C5.52725 0.98291 4.82413 0.719238 4.09171 0.719238C2.2753 0.719238 0.810457 2.21338 0.810457 4.00049C0.810457 4.76221 1.04483 5.46533 1.48429 6.02197C1.39639 6.43213 1.3378 6.87158 1.3378 7.28174C1.3378 10.6216 4.03311 13.3169 7.34366 13.3169C7.78311 13.3169 8.22257 13.2583 8.63272 13.1704C9.18936 13.6099 9.89249 13.8442 10.6249 13.8442C12.4413 13.8442 13.9062 12.3794 13.9062 10.563C13.9355 9.83057 13.6718 9.12744 13.2323 8.5708ZM7.54874 11.2661C5.61514 11.2661 4.00382 10.4165 4.00382 9.36182C4.00382 8.89307 4.26749 8.45361 4.88272 8.45361C5.79093 8.45361 5.87882 9.77197 7.46085 9.77197C8.19327 9.77197 8.69132 9.44971 8.69132 9.01025C8.69132 8.45361 8.22257 8.36572 7.46085 8.18994C5.64444 7.72119 4.00382 7.54541 4.00382 5.64111C4.00382 3.8833 5.73233 3.23877 7.19718 3.23877C8.8085 3.23877 10.4491 3.8833 10.4491 4.87939C10.4491 5.37744 10.1269 5.81689 9.57022 5.81689C8.74991 5.81689 8.72061 4.8208 7.37296 4.8208C6.61124 4.8208 6.14249 5.02588 6.14249 5.49463C6.14249 6.05127 6.75772 6.10986 8.16397 6.46143C9.36514 6.7251 10.83 7.22314 10.83 8.71729C10.83 10.4458 9.16007 11.2661 7.54874 11.2661Z" fill="white"/>
</svg>
