<svg width="14" height="14" viewBox="0 0 14 14" fill="none" xmlns="http://www.w3.org/2000/svg">
<path d="M13.2328 8.5708C13.3207 8.16064 13.3793 7.72119 13.3793 7.28174C13.3793 3.97119 10.684 1.27588 7.37345 1.27588C6.93399 1.27588 6.49454 1.33447 6.08438 1.42236C5.52774 0.98291 4.82462 0.719238 4.0922 0.719238C2.27579 0.719238 0.810946 2.21338 0.810946 4.00049C0.810946 4.76221 1.04532 5.46533 1.48477 6.02197C1.39688 6.43213 1.33829 6.87158 1.33829 7.28174C1.33829 10.6216 4.0336 13.3169 7.34415 13.3169C7.7836 13.3169 8.22305 13.2583 8.63321 13.1704C9.18985 13.6099 9.89298 13.8442 10.6254 13.8442C12.4418 13.8442 13.9066 12.3794 13.9066 10.563C13.9359 9.83057 13.6723 9.12744 13.2328 8.5708ZM7.54923 11.2661C5.61563 11.2661 4.0043 10.4165 4.0043 9.36182C4.0043 8.89307 4.26798 8.45361 4.88321 8.45361C5.79141 8.45361 5.8793 9.77197 7.46134 9.77197C8.19376 9.77197 8.6918 9.44971 8.6918 9.01025C8.6918 8.45361 8.22305 8.36572 7.46134 8.18994C5.64493 7.72119 4.0043 7.54541 4.0043 5.64111C4.0043 3.8833 5.73282 3.23877 7.19766 3.23877C8.80899 3.23877 10.4496 3.8833 10.4496 4.87939C10.4496 5.37744 10.1274 5.81689 9.57071 5.81689C8.7504 5.81689 8.7211 4.8208 7.37345 4.8208C6.61173 4.8208 6.14298 5.02588 6.14298 5.49463C6.14298 6.05127 6.75821 6.10986 8.16446 6.46143C9.36563 6.7251 10.8305 7.22314 10.8305 8.71729C10.8305 10.4458 9.16055 11.2661 7.54923 11.2661Z" fill="white"/>
</svg>
