<svg width="15" height="14" viewBox="0 0 15 14" fill="none" xmlns="http://www.w3.org/2000/svg">
<path d="M13.3594 8.66406C13.4473 8.25391 13.5059 7.81445 13.5059 7.375C13.5059 4.06445 10.8105 1.36914 7.5 1.36914C7.06055 1.36914 6.62109 1.42773 6.21094 1.51562C5.6543 1.07617 4.95117 0.8125 4.21875 0.8125C2.40234 0.8125 0.9375 2.30664 0.9375 4.09375C0.9375 4.85547 1.17188 5.55859 1.61133 6.11523C1.52344 6.52539 1.46484 6.96484 1.46484 7.375C1.46484 10.7148 4.16016 13.4102 7.4707 13.4102C7.91016 13.4102 8.34961 13.3516 8.75977 13.2637C9.31641 13.7031 10.0195 13.9375 10.752 13.9375C12.5684 13.9375 14.0332 12.4727 14.0332 10.6562C14.0625 9.92383 13.7988 9.2207 13.3594 8.66406ZM7.67578 11.3594C5.74219 11.3594 4.13086 10.5098 4.13086 9.45508C4.13086 8.98633 4.39453 8.54688 5.00977 8.54688C5.91797 8.54688 6.00586 9.86523 7.58789 9.86523C8.32031 9.86523 8.81836 9.54297 8.81836 9.10352C8.81836 8.54688 8.34961 8.45898 7.58789 8.2832C5.77148 7.81445 4.13086 7.63867 4.13086 5.73438C4.13086 3.97656 5.85938 3.33203 7.32422 3.33203C8.93555 3.33203 10.5762 3.97656 10.5762 4.97266C10.5762 5.4707 10.2539 5.91016 9.69727 5.91016C8.87695 5.91016 8.84766 4.91406 7.5 4.91406C6.73828 4.91406 6.26953 5.11914 6.26953 5.58789C6.26953 6.14453 6.88477 6.20312 8.29102 6.55469C9.49219 6.81836 10.957 7.31641 10.957 8.81055C10.957 10.5391 9.28711 11.3594 7.67578 11.3594Z" fill="#292930"/>
</svg>
