<svg width="16" height="14" viewBox="0 0 16 14" fill="none" xmlns="http://www.w3.org/2000/svg">
<path d="M13.9064 3.90234C14.4923 3.46289 15.0197 2.93555 15.4298 2.32031C14.9025 2.55469 14.2872 2.73047 13.672 2.78906C14.3165 2.4082 14.7853 1.82227 15.0197 1.08984C14.4337 1.44141 13.7599 1.70508 13.0861 1.85156C12.5001 1.23633 11.7091 0.884766 10.8302 0.884766C9.13099 0.884766 7.75403 2.26172 7.75403 3.96094C7.75403 4.19531 7.78333 4.42969 7.84193 4.66406C5.2931 4.51758 3.00794 3.28711 1.4845 1.44141C1.22083 1.88086 1.07435 2.4082 1.07435 2.99414C1.07435 4.04883 1.60169 4.98633 2.4513 5.54297C1.95325 5.51367 1.45521 5.39648 1.04505 5.16211V5.19141C1.04505 6.68555 2.09974 7.91602 3.50599 8.20898C3.27161 8.26758 2.97864 8.32617 2.71497 8.32617C2.50989 8.32617 2.33411 8.29688 2.12903 8.26758C2.50989 9.49805 3.65247 10.377 5.00013 10.4062C3.94544 11.2266 2.62708 11.7246 1.19153 11.7246C0.927863 11.7246 0.693488 11.6953 0.459113 11.666C1.80677 12.5449 3.4181 13.043 5.17591 13.043C10.8302 13.043 13.9064 8.38477 13.9064 4.3125C13.9064 4.16602 13.9064 4.04883 13.9064 3.90234Z" fill="white"/>
</svg>
