<svg width="16" height="14" viewBox="0 0 16 14" fill="none" xmlns="http://www.w3.org/2000/svg">
<path d="M13.4999 3.90234C14.0858 3.46289 14.6132 2.93555 15.0233 2.32031C14.496 2.55469 13.8807 2.73047 13.2655 2.78906C13.91 2.4082 14.3788 1.82227 14.6132 1.08984C14.0272 1.44141 13.3534 1.70508 12.6796 1.85156C12.0936 1.23633 11.3026 0.884766 10.4237 0.884766C8.72449 0.884766 7.34754 2.26172 7.34754 3.96094C7.34754 4.19531 7.37684 4.42969 7.43543 4.66406C4.8866 4.51758 2.60145 3.28711 1.07801 1.44141C0.814338 1.88086 0.667853 2.4082 0.667853 2.99414C0.667853 4.04883 1.1952 4.98633 2.04481 5.54297C1.54676 5.51367 1.04871 5.39648 0.638556 5.16211V5.19141C0.638556 6.68555 1.69324 7.91602 3.09949 8.20898C2.86512 8.26758 2.57215 8.32617 2.30848 8.32617C2.1034 8.32617 1.92762 8.29688 1.72254 8.26758C2.1034 9.49805 3.24598 10.377 4.59363 10.4062C3.53895 11.2266 2.22059 11.7246 0.785041 11.7246C0.521369 11.7246 0.286994 11.6953 0.052619 11.666C1.40028 12.5449 3.0116 13.043 4.76942 13.043C10.4237 13.043 13.4999 8.38477 13.4999 4.3125C13.4999 4.16602 13.4999 4.04883 13.4999 3.90234Z" fill="white"/>
</svg>
