<svg width="16" height="13" viewBox="0 0 16 13" fill="none" xmlns="http://www.w3.org/2000/svg">
<path d="M13.9473 3.32812C14.5332 2.88867 15.0605 2.36133 15.4707 1.74609C14.9434 1.98047 14.3281 2.15625 13.7129 2.21484C14.3574 1.83398 14.8262 1.24805 15.0605 0.515625C14.4746 0.867188 13.8008 1.13086 13.127 1.27734C12.541 0.662109 11.75 0.310547 10.8711 0.310547C9.17188 0.310547 7.79492 1.6875 7.79492 3.38672C7.79492 3.62109 7.82422 3.85547 7.88281 4.08984C5.33398 3.94336 3.04883 2.71289 1.52539 0.867188C1.26172 1.30664 1.11523 1.83398 1.11523 2.41992C1.11523 3.47461 1.64258 4.41211 2.49219 4.96875C1.99414 4.93945 1.49609 4.82227 1.08594 4.58789V4.61719C1.08594 6.11133 2.14062 7.3418 3.54688 7.63477C3.3125 7.69336 3.01953 7.75195 2.75586 7.75195C2.55078 7.75195 2.375 7.72266 2.16992 7.69336C2.55078 8.92383 3.69336 9.80273 5.04102 9.83203C3.98633 10.6523 2.66797 11.1504 1.23242 11.1504C0.96875 11.1504 0.734375 11.1211 0.5 11.0918C1.84766 11.9707 3.45898 12.4688 5.2168 12.4688C10.8711 12.4688 13.9473 7.81055 13.9473 3.73828C13.9473 3.5918 13.9473 3.47461 13.9473 3.32812Z" fill="#292930"/>
</svg>
