<svg width="17" height="12" viewBox="0 0 17 12" fill="none" xmlns="http://www.w3.org/2000/svg">
<path d="M16.6465 2.53711C16.4707 1.83398 15.9141 1.27734 15.2402 1.10156C13.9805 0.75 9 0.75 9 0.75C9 0.75 3.99023 0.75 2.73047 1.10156C2.05664 1.27734 1.5 1.83398 1.32422 2.53711C0.972656 3.76758 0.972656 6.4043 0.972656 6.4043C0.972656 6.4043 0.972656 9.01172 1.32422 10.2715C1.5 10.9746 2.05664 11.502 2.73047 11.6777C3.99023 12 9 12 9 12C9 12 13.9805 12 15.2402 11.6777C15.9141 11.502 16.4707 10.9746 16.6465 10.2715C16.998 9.01172 16.998 6.4043 16.998 6.4043C16.998 6.4043 16.998 3.76758 16.6465 2.53711ZM7.35938 8.77734V4.03125L11.5195 6.4043L7.35938 8.77734Z" fill="white"/>
</svg>
