<svg width="17" height="12" viewBox="0 0 17 12" fill="none" xmlns="http://www.w3.org/2000/svg">
<path d="M15.8891 2.11133C15.7133 1.4082 15.1566 0.851562 14.4828 0.675781C13.2231 0.324219 8.24259 0.324219 8.24259 0.324219C8.24259 0.324219 3.23282 0.324219 1.97305 0.675781C1.29923 0.851562 0.742586 1.4082 0.566805 2.11133C0.215242 3.3418 0.215242 5.97852 0.215242 5.97852C0.215242 5.97852 0.215242 8.58594 0.566805 9.8457C0.742586 10.5488 1.29923 11.0762 1.97305 11.252C3.23282 11.5742 8.24259 11.5742 8.24259 11.5742C8.24259 11.5742 13.2231 11.5742 14.4828 11.252C15.1566 11.0762 15.7133 10.5488 15.8891 9.8457C16.2406 8.58594 16.2406 5.97852 16.2406 5.97852C16.2406 5.97852 16.2406 3.3418 15.8891 2.11133ZM6.60196 8.35156V3.60547L10.7621 5.97852L6.60196 8.35156Z" fill="white"/>
</svg>
