<svg width="17" height="12" viewBox="0 0 17 12" fill="none" xmlns="http://www.w3.org/2000/svg">
<path d="M15.8886 2.11133C15.7128 1.4082 15.1562 0.851562 14.4823 0.675781C13.2226 0.324219 8.2421 0.324219 8.2421 0.324219C8.2421 0.324219 3.23233 0.324219 1.97257 0.675781C1.29874 0.851562 0.742098 1.4082 0.566317 2.11133C0.214754 3.3418 0.214754 5.97852 0.214754 5.97852C0.214754 5.97852 0.214754 8.58594 0.566317 9.8457C0.742098 10.5488 1.29874 11.0762 1.97257 11.252C3.23233 11.5742 8.2421 11.5742 8.2421 11.5742C8.2421 11.5742 13.2226 11.5742 14.4823 11.252C15.1562 11.0762 15.7128 10.5488 15.8886 9.8457C16.2401 8.58594 16.2401 5.97852 16.2401 5.97852C16.2401 5.97852 16.2401 3.3418 15.8886 2.11133ZM6.60147 8.35156V3.60547L10.7616 5.97852L6.60147 8.35156Z" fill="white"/>
</svg>
